<svg width="172" height="172" viewBox="0 0 172 172" fill="none" xmlns="http://www.w3.org/2000/svg">
<rect width="172" height="172" rx="16" fill="#F0F0F0"/>
<g style="mix-blend-mode:multiply">
<path d="M92.1563 64.9541L29.2106 64.9541L74.149 146.157L137.095 146.157L92.1563 64.9541Z" fill="#007882"/>
</g>
<g style="mix-blend-mode:multiply">
<path fill-rule="evenodd" clip-rule="evenodd" d="M114.694 51.2878C121.284 57.8773 131.967 57.8773 138.557 51.2878L148.784 61.5146C136.546 73.7522 116.705 73.7522 104.468 61.5146C92.23 49.2771 92.23 29.436 104.468 17.1985L114.694 27.4253C108.105 34.0147 108.105 44.6984 114.694 51.2878Z" fill="#B36CCD"/>
</g>
<g style="mix-blend-mode:multiply">
<path d="M29.4941 125.467C29.4941 127.973 33.3794 129.687 34.2832 131.87C35.1871 134.053 33.7198 138.085 35.4218 139.787C37.1238 141.489 41.0795 139.993 43.3391 140.926C45.5987 141.859 47.2361 145.715 49.7422 145.715C52.2482 145.715 53.962 141.83 56.1453 140.926C58.3285 140.022 62.3605 141.489 64.0625 139.787C65.7646 138.085 64.268 134.129 65.2011 131.87C66.1343 129.61 69.9902 127.973 69.9902 125.467C69.9902 122.961 66.105 121.247 65.2011 119.064C64.2973 116.88 65.7646 112.848 64.0625 111.146C62.3605 109.444 58.4048 110.941 56.1453 110.008C53.8857 109.075 52.2482 105.219 49.7422 105.219C47.2361 105.219 45.5224 109.104 43.3391 110.008C41.1558 110.912 37.1238 109.444 35.4218 111.146C33.7198 112.848 35.2164 116.804 34.2832 119.064C33.3501 121.323 29.4941 122.961 29.4941 125.467Z" fill="#4ACBD4"/>
</g>
</svg>
