<svg width="414" height="260" viewBox="0 0 414 260" fill="none" xmlns="http://www.w3.org/2000/svg">
<rect width="414" height="260" rx="16" fill="#EFF2FC"/>
<g style="mix-blend-mode:multiply">
<path d="M143.971 95L46.3002 95L116.03 221L213.7 221L143.971 95Z" fill="#056AD8"/>
</g>
<g style="mix-blend-mode:multiply">
<rect x="120.667" y="43.333" width="86.6667" height="53.3333" fill="#3B86F9"/>
</g>
<g style="mix-blend-mode:multiply">
<path fill-rule="evenodd" clip-rule="evenodd" d="M315.917 88.5148C326.851 99.4495 344.58 99.4495 355.515 88.5148L372.485 105.485C352.178 125.793 319.254 125.793 298.946 105.485C278.639 85.1781 278.639 52.2535 298.946 31.9462L315.917 48.9168C304.982 59.8515 304.982 77.5801 315.917 88.5148Z" fill="#F64157"/>
</g>
<g style="mix-blend-mode:multiply">
<path fill-rule="evenodd" clip-rule="evenodd" d="M296.234 195.907L310.672 187.571H294L294 180.428H310.672L296.234 172.092L299.805 165.907L314.241 174.241L305.907 159.806L312.093 156.234L320.429 170.673V154H327.572V170.67L335.907 156.233L342.093 159.804L333.757 174.243L348.195 165.907L351.767 172.093L337.329 180.428H354V187.571H337.329L351.767 195.907L348.195 202.092L333.756 193.756L342.093 208.196L335.907 211.767L327.572 197.33V214H320.429V197.328L312.093 211.766L305.907 208.195L314.242 193.758L299.805 202.093L296.234 195.907Z" fill="#00A0AC"/>
</g>
<g style="mix-blend-mode:multiply">
<path d="M38 184C38 187.961 44.1403 190.669 45.5687 194.119C46.9971 197.57 44.6783 203.942 47.3681 206.632C50.058 209.322 56.3096 206.957 59.8806 208.431C63.4516 209.906 66.0394 216 70 216C73.9606 216 76.669 209.86 80.1194 208.431C83.5699 207.003 89.942 209.322 92.6319 206.632C95.3217 203.942 92.9565 197.69 94.4313 194.119C95.9061 190.548 102 187.961 102 184C102 180.039 95.8597 177.331 94.4313 173.881C93.0029 170.43 95.3217 164.058 92.6319 161.368C89.942 158.678 83.6904 161.043 80.1194 159.569C76.5484 158.094 73.9606 152 70 152C66.0394 152 63.331 158.14 59.8806 159.569C56.4301 160.997 50.058 158.678 47.3681 161.368C44.6783 164.058 47.0435 170.31 45.5687 173.881C44.0939 177.452 38 180.039 38 184Z" fill="#8FAEFE"/>
</g>
</svg>
