<svg width="172" height="172" viewBox="0 0 172 172" fill="none" xmlns="http://www.w3.org/2000/svg">
<rect width="172" height="172" rx="86" fill="#EFF2FC"/>
<g style="mix-blend-mode:multiply">
<path d="M91.9825 56.3467L29.0368 56.3467L73.9752 137.55L136.921 137.55L91.9825 56.3467Z" fill="#056AD8"/>
</g>
<g style="mix-blend-mode:multiply">
<path d="M31.3662 110.49C31.3662 112.996 35.2515 114.71 36.1553 116.893C37.0591 119.077 35.5919 123.109 37.2939 124.811C38.9959 126.513 42.9516 125.016 45.2112 125.949C47.4707 126.882 49.1082 130.738 51.6143 130.738C54.1203 130.738 55.8341 126.853 58.0173 125.949C60.2006 125.045 64.2326 126.513 65.9346 124.811C67.6366 123.109 66.14 119.153 67.0732 116.893C68.0064 114.634 71.8623 112.996 71.8623 110.49C71.8623 107.984 67.977 106.27 67.0732 104.087C66.1694 101.904 67.6366 97.8719 65.9346 96.1699C64.2326 94.4679 60.2769 95.9645 58.0173 95.0313C55.7578 94.0981 54.1203 90.2422 51.6143 90.2422C49.1082 90.2422 47.3944 94.1275 45.2112 95.0313C43.0279 95.9351 38.9959 94.4679 37.2939 96.1699C35.5919 97.8719 37.0885 101.828 36.1553 104.087C35.2221 106.347 31.3662 107.984 31.3662 110.49Z" fill="#8FAEFE"/>
</g>
<g style="mix-blend-mode:multiply">
<path fill-rule="evenodd" clip-rule="evenodd" d="M104.312 61.2878C110.902 67.8773 121.586 67.8773 128.175 61.2878L138.402 71.5146C126.164 83.7522 106.323 83.7522 94.0857 71.5146C81.8481 59.2771 81.8481 39.436 94.0857 27.1985L104.312 37.4253C97.723 44.0147 97.723 54.6984 104.312 61.2878Z" fill="#F64157"/>
</g>
</svg>
