<svg width="172" height="172" viewBox="0 0 172 172" fill="none" xmlns="http://www.w3.org/2000/svg">
<rect width="172" height="172" rx="16" fill="#F9EBF0"/>
<g style="mix-blend-mode:multiply">
<rect x="51.4458" y="83.8623" width="94.9127" height="63.2752" fill="#B9346C"/>
</g>
<g style="mix-blend-mode:multiply">
<path fill-rule="evenodd" clip-rule="evenodd" d="M124.402 53.7464C124.402 44.4275 116.847 36.873 107.528 36.873V22.4102C124.835 22.4102 138.865 36.4399 138.865 53.7464C138.865 71.053 124.835 85.0827 107.528 85.0827V70.6198C116.847 70.6198 124.402 63.0653 124.402 53.7464Z" fill="#00A0AC"/>
</g>
<g style="mix-blend-mode:multiply">
<path fill-rule="evenodd" clip-rule="evenodd" d="M52.2417 66.3205C45.5798 70.1667 37.0612 67.8842 33.215 61.2223C29.3687 54.5604 31.6512 46.0418 38.3132 42.1955C44.9751 38.3493 53.4936 40.6318 57.3399 47.2937C61.1861 53.9556 58.9036 62.4742 52.2417 66.3205ZM63.1484 51.9061C62.8395 49.5593 62.0713 47.2963 60.8877 45.2463L66.0911 42.2421C67.6692 44.9754 68.6935 47.9927 69.1054 51.1219C69.5174 54.251 69.309 57.4306 68.4921 60.4792C67.6752 63.5278 66.2659 66.3856 64.3446 68.8896C62.4233 71.3935 60.0276 73.4945 57.2943 75.0725C54.561 76.6506 51.5436 77.6748 48.4145 78.0868C45.2854 78.4988 42.1058 78.2904 39.0572 77.4735C36.0086 76.6566 33.1507 75.2473 30.6468 73.326C28.1429 71.4046 26.0419 69.0089 24.4638 66.2757L29.6673 63.2715C30.8508 65.3214 32.4265 67.1182 34.3045 68.5592C36.1824 70.0002 38.3258 71.0572 40.6122 71.6698C42.8987 72.2825 45.2834 72.4388 47.6303 72.1298C49.9771 71.8209 52.2401 71.0527 54.2901 69.8691C56.34 68.6856 58.1368 67.1098 59.5778 65.2319C61.0188 63.354 62.0758 61.2106 62.6885 58.9241C63.3011 56.6377 63.4574 54.253 63.1484 51.9061Z" fill="#E2568F"/>
</g>
</svg>
