<svg width="414" height="260" viewBox="0 0 414 260" fill="none" xmlns="http://www.w3.org/2000/svg">
<rect width="414" height="260" rx="16" fill="#EFF2FC"/>
<g style="mix-blend-mode:multiply">
<rect x="218.364" y="106.909" width="147.273" height="98.1818" fill="#056AD8"/>
</g>
<g style="mix-blend-mode:multiply">
<path fill-rule="evenodd" clip-rule="evenodd" d="M90.8571 199.08C80.3286 205.158 66.8659 201.551 60.7873 191.023C54.7087 180.494 58.316 167.031 68.8445 160.953C79.3729 154.874 92.8357 158.482 98.9143 169.01C104.993 179.538 101.386 193.001 90.8571 199.08ZM108.094 176.299C107.606 172.59 106.392 169.014 104.521 165.774L112.745 161.026C115.239 165.346 116.857 170.115 117.509 175.06C118.16 180.005 117.83 185.03 116.539 189.848C115.248 194.666 113.021 199.183 109.985 203.14C106.948 207.097 103.162 210.418 98.8422 212.912C94.5225 215.406 89.7539 217.024 84.8086 217.675C79.8634 218.326 74.8383 217.997 70.0203 216.706C65.2023 215.415 60.6858 213.188 56.7286 210.151C52.7714 207.115 49.451 203.329 46.957 199.009L55.1805 194.261C57.051 197.501 59.5413 200.341 62.5092 202.618C65.4771 204.895 68.8645 206.566 72.478 207.534C76.0914 208.502 79.8603 208.749 83.5692 208.261C87.2782 207.773 90.8546 206.559 94.0944 204.688C97.3341 202.818 100.174 200.327 102.451 197.359C104.728 194.392 106.399 191.004 107.367 187.391C108.335 183.777 108.582 180.008 108.094 176.299Z" fill="#3B86F9"/>
</g>
<g style="mix-blend-mode:multiply">
<path fill-rule="evenodd" clip-rule="evenodd" d="M323.143 83.9999C323.143 66.3267 308.816 51.9999 291.143 51.9999V24.5713C323.964 24.5713 350.571 51.1784 350.571 83.9999C350.571 116.821 323.964 143.428 291.143 143.428V116C308.816 116 323.143 101.673 323.143 83.9999Z" fill="#F64157"/>
</g>
<g style="mix-blend-mode:multiply">
<path d="M105.698 141L36.4018 71.7035L75.9997 32.1055L145.296 101.402L105.698 141Z" fill="#00A0AC"/>
</g>
<g style="mix-blend-mode:multiply">
<rect x="108.667" y="48.333" width="86.6667" height="53.3333" fill="#8FAEFE"/>
</g>
</svg>
