<svg width="172" height="172" viewBox="0 0 172 172" fill="none" xmlns="http://www.w3.org/2000/svg">
<rect width="172" height="172" rx="86" fill="#EFF2FC"/>
<g style="mix-blend-mode:multiply">
<rect x="38.5459" y="71.7646" width="94.9127" height="63.2752" fill="#056AD8"/>
</g>
<g style="mix-blend-mode:multiply">
<path fill-rule="evenodd" clip-rule="evenodd" d="M107.471 59.9554C107.471 50.6365 99.9161 43.082 90.5972 43.082V28.6191C107.904 28.6191 121.933 42.6489 121.933 59.9554C121.933 77.2619 107.904 91.2917 90.5972 91.2917V76.8288C99.9161 76.8288 107.471 69.2743 107.471 59.9554Z" fill="#F64157"/>
</g>
<g style="mix-blend-mode:multiply">
<path fill-rule="evenodd" clip-rule="evenodd" d="M54.2417 75.3205C47.5798 79.1667 39.0612 76.8842 35.215 70.2223C31.3687 63.5604 33.6512 55.0418 40.3131 51.1955C46.9751 47.3493 55.4936 49.6318 59.3399 56.2937C63.1861 62.9556 60.9036 71.4742 54.2417 75.3205ZM65.1484 60.9061C64.8395 58.5593 64.0713 56.2963 62.8877 54.2463L68.0911 51.2421C69.6692 53.9754 70.6935 56.9927 71.1054 60.1219C71.5174 63.251 71.309 66.4306 70.4921 69.4792C69.6752 72.5278 68.2659 75.3856 66.3446 77.8896C64.4233 80.3935 62.0276 82.4945 59.2943 84.0725C56.561 85.6506 53.5436 86.6748 50.4145 87.0868C47.2854 87.4988 44.1058 87.2904 41.0572 86.4735C38.0086 85.6566 35.1507 84.2473 32.6468 82.326C30.1429 80.4046 28.0419 78.0089 26.4638 75.2757L31.6673 72.2715C32.8508 74.3214 34.4265 76.1182 36.3045 77.5592C38.1824 79.0002 40.3258 80.0572 42.6122 80.6698C44.8987 81.2825 47.2834 81.4388 49.6303 81.1298C51.9771 80.8209 54.2401 80.0527 56.2901 78.8691C58.34 77.6856 60.1368 76.1098 61.5778 74.2319C63.0188 72.354 64.0758 70.2106 64.6885 67.9241C65.3011 65.6377 65.4574 63.253 65.1484 60.9061Z" fill="#3B86F9"/>
</g>
</svg>
