<svg width="260" height="414" viewBox="0 0 260 414" fill="none" xmlns="http://www.w3.org/2000/svg">
<rect width="260" height="414" rx="16" fill="#EFF2FC"/>
<g style="mix-blend-mode:multiply">
<path d="M80 289.035L136.569 331.569L80 374.102L23.4315 331.569L80 289.035Z" fill="#00A0AC"/>
</g>
<g style="mix-blend-mode:multiply">
<path fill-rule="evenodd" clip-rule="evenodd" d="M160 330C175.464 330 188 317.464 188 302L212 302C212 330.719 188.719 354 160 354C131.281 354 108 330.719 108 302L132 302C132 317.464 144.536 330 160 330Z" fill="#F64157"/>
</g>
<g style="mix-blend-mode:multiply">
<circle cx="170" cy="172" r="50" fill="#3B86F9"/>
</g>
<g style="mix-blend-mode:multiply">
<path d="M75.2558 188.333H28.3333L65.5775 251.666H112.5L75.2558 188.333Z" fill="#8FAEFE"/>
</g>
<g style="mix-blend-mode:multiply">
<path fill-rule="evenodd" clip-rule="evenodd" d="M163.318 124.195L137.757 109.438H167.272L167.272 94.5621H137.756L163.318 79.8041L155.88 66.9211L130.324 81.676L145.078 56.1201L132.195 48.6821L117.438 74.2428V44.7275H102.562V74.2403L87.805 48.6808L74.922 56.1189L89.6801 81.6807L64.1185 66.9227L56.6805 79.8057L82.2393 94.5621H52.727V109.438H82.2381L56.6805 124.194L64.1185 137.077L89.6815 122.318L74.9225 147.881L87.8055 155.319L102.562 129.761V159.273H117.438V129.758L132.195 155.318L145.078 147.88L130.322 122.323L155.88 137.078L163.318 124.195Z" fill="#056AD8"/>
</g>
</svg>
