<svg width="260" height="414" viewBox="0 0 260 414" fill="none" xmlns="http://www.w3.org/2000/svg">
<rect width="260" height="414" rx="16" fill="#F4ECF6"/>
<g style="mix-blend-mode:multiply">
<rect x="46.3638" y="260.909" width="147.273" height="98.1818" fill="#9751B0"/>
</g>
<g style="mix-blend-mode:multiply">
<path fill-rule="evenodd" clip-rule="evenodd" d="M179.143 257C179.143 239.327 164.816 225 147.143 225V197.571C179.964 197.571 206.571 224.178 206.571 257C206.571 289.821 179.964 316.428 147.143 316.428V289C164.816 289 179.143 274.673 179.143 257Z" fill="#A78E00"/>
</g>
<g style="mix-blend-mode:multiply">
<path d="M125.698 131L56.4018 61.7035L95.9997 22.1055L165.296 91.402L125.698 131Z" fill="#056AD8"/>
</g>
<g style="mix-blend-mode:multiply">
<path fill-rule="evenodd" clip-rule="evenodd" d="M78.8571 178.08C68.3286 184.158 54.8659 180.551 48.7873 170.023C42.7087 159.494 46.316 146.031 56.8445 139.953C67.3729 133.874 80.8357 137.482 86.9143 148.01C92.9929 158.538 89.3856 172.001 78.8571 178.08ZM96.0941 155.299C95.6058 151.59 94.3918 148.014 92.5213 144.774L100.745 140.026C103.239 144.346 104.857 149.115 105.509 154.06C106.16 159.005 105.83 164.03 104.539 168.848C103.248 173.666 101.021 178.183 97.9845 182.14C94.9481 186.097 91.1619 189.418 86.8422 191.912C82.5225 194.406 77.7539 196.024 72.8086 196.675C67.8634 197.326 62.8383 196.997 58.0203 195.706C53.2023 194.415 48.6858 192.188 44.7286 189.151C40.7714 186.115 37.451 182.329 34.957 178.009L43.1805 173.261C45.051 176.501 47.5413 179.341 50.5092 181.618C53.4771 183.895 56.8645 185.566 60.478 186.534C64.0914 187.502 67.8603 187.749 71.5692 187.261C75.2782 186.773 78.8546 185.559 82.0944 183.688C85.3341 181.818 88.1738 179.327 90.4511 176.359C92.7285 173.392 94.399 170.004 95.3672 166.391C96.3354 162.777 96.5824 159.008 96.0941 155.299Z" fill="#B36CCD"/>
</g>
<g style="mix-blend-mode:multiply">
<rect x="136.667" y="43.333" width="86.6667" height="53.3333" fill="#CC9FD9"/>
</g>
</svg>
