<svg width="260" height="414" viewBox="0 0 260 414" fill="none" xmlns="http://www.w3.org/2000/svg">
<rect width="260" height="414" rx="16" fill="#EFF2FC"/>
<g style="mix-blend-mode:multiply">
<rect x="46.3636" y="260.909" width="147.273" height="98.1818" fill="#0A69CF"/>
</g>
<g style="mix-blend-mode:multiply">
<path fill-rule="evenodd" clip-rule="evenodd" d="M179.143 257C179.143 239.327 164.816 225 147.143 225V197.571C179.964 197.571 206.571 224.178 206.571 257C206.571 289.821 179.964 316.428 147.143 316.428V289C164.816 289 179.143 274.673 179.143 257Z" fill="#F84258"/>
</g>
<g style="mix-blend-mode:multiply">
<path d="M125.698 131L56.402 61.7035L96 22.1055L165.296 91.402L125.698 131Z" fill="#00A3AF"/>
</g>
<g style="mix-blend-mode:multiply">
<path fill-rule="evenodd" clip-rule="evenodd" d="M78.8569 178.08C68.3284 184.158 54.8657 180.551 48.7871 170.023C42.7085 159.494 46.3158 146.031 56.8443 139.953C67.3728 133.874 80.8355 137.482 86.9141 148.01C92.9927 158.538 89.3854 172.001 78.8569 178.08ZM96.094 155.299C95.6057 151.59 94.3916 148.014 92.5211 144.774L100.745 140.026C103.239 144.346 104.857 149.115 105.508 154.06C106.159 159.005 105.83 164.03 104.539 168.848C103.248 173.666 101.021 178.183 97.9843 182.14C94.9479 186.097 91.1617 189.418 86.842 191.912C82.5223 194.406 77.7537 196.024 72.8085 196.675C67.8632 197.326 62.8381 196.997 58.0201 195.706C53.2021 194.415 48.6856 192.188 44.7284 189.151C40.7712 186.115 37.4508 182.329 34.9569 178.009L43.1803 173.261C45.0508 176.501 47.5411 179.341 50.509 181.618C53.4769 183.895 56.8643 185.566 60.4778 186.534C64.0913 187.502 67.8601 187.749 71.569 187.261C75.278 186.773 78.8544 185.559 82.0942 183.688C85.334 181.818 88.1736 179.327 90.4509 176.359C92.7283 173.392 94.3988 170.004 95.367 166.391C96.3352 162.777 96.5823 159.008 96.094 155.299Z" fill="#428CFE"/>
</g>
<g style="mix-blend-mode:multiply">
<rect x="136.667" y="43.333" width="86.6667" height="53.3333" fill="#8FAEFE"/>
</g>
</svg>
