<svg width="172" height="172" viewBox="0 0 172 172" fill="none" xmlns="http://www.w3.org/2000/svg">
<rect width="172" height="172" rx="16" fill="#FAECE6"/>
<g style="mix-blend-mode:multiply">
<path fill-rule="evenodd" clip-rule="evenodd" d="M138.264 70.7058L121.791 61.1952H140.812L140.812 51.608H121.79L138.264 42.097L133.47 33.7943L117 43.3033L126.509 26.8334L118.206 22.0398L108.696 38.5129V19.4912H99.1084V38.5113L89.5982 22.039L81.2955 26.8326L90.8066 43.3064L74.333 33.7953L69.5394 42.098L86.0113 51.6081H66.9915V61.1952H86.0105L69.5394 70.7048L74.333 79.0075L90.8075 69.4959L81.2958 85.9707L89.5985 90.7643L99.1084 74.2926V93.3122H108.696V74.291L118.206 90.7634L126.509 85.9699L116.999 69.4989L133.47 79.0085L138.264 70.7058Z" fill="#B54E1B"/>
</g>
<g style="mix-blend-mode:multiply">
<path d="M133.059 83.667H103.368L126.935 123.741H156.625L133.059 83.667Z" fill="#2EAB80"/>
</g>
<g style="mix-blend-mode:multiply">
<path d="M46.9106 100.873L76.7388 123.301L46.9106 145.728L17.0825 123.301L46.9106 100.873Z" fill="#F49972"/>
</g>
</svg>
