<svg width="172" height="172" viewBox="0 0 172 172" fill="none" xmlns="http://www.w3.org/2000/svg">
<rect width="172" height="172" rx="86" fill="#FAECE6"/>
<g style="mix-blend-mode:multiply">
<path fill-rule="evenodd" clip-rule="evenodd" d="M120.364 74.7058L103.892 65.1952H122.913L122.913 55.608H103.891L120.364 46.097L115.571 37.7943L99.1007 47.3033L108.61 30.8334L100.307 26.0398L90.7962 42.5129V23.4912H81.209V42.5113L71.6988 26.039L63.396 30.8326L72.9072 47.3064L56.4335 37.7953L51.64 46.098L68.1119 55.6081H49.0921V65.1952H68.111L51.64 74.7048L56.4335 83.0075L72.9081 73.4959L63.3964 89.9707L71.6991 94.7643L81.209 78.2926V97.3122H90.7962V78.291L100.307 94.7634L108.609 89.9699L99.0998 73.4989L115.571 83.0085L120.364 74.7058Z" fill="#B54E1B"/>
</g>
<g style="mix-blend-mode:multiply">
<path d="M132.963 83.2725H103.273L126.839 123.347H156.529L132.963 83.2725Z" fill="#2EAB80"/>
</g>
<g style="mix-blend-mode:multiply">
<path d="M58.4395 93.926L88.2676 116.354L58.4395 138.781L28.6113 116.354L58.4395 93.926Z" fill="#F49972"/>
</g>
</svg>
