<svg width="260" height="414" viewBox="0 0 260 414" fill="none" xmlns="http://www.w3.org/2000/svg">
<rect width="260" height="414" rx="16" fill="#FAECE6"/>
<g style="mix-blend-mode:multiply">
<path d="M133.971 237L36.3002 237L106.03 363L203.7 363L133.971 237Z" fill="#B54E1B"/>
</g>
<g style="mix-blend-mode:multiply">
<rect x="126.667" y="203.333" width="86.6667" height="53.3333" fill="#DC6733"/>
</g>
<g style="mix-blend-mode:multiply">
<path fill-rule="evenodd" clip-rule="evenodd" d="M42.2338 143.907L56.6718 135.571H40L40 128.428H56.6718L42.2338 120.092L45.8052 113.907L60.2411 122.241L51.9068 107.806L58.0927 104.234L66.4287 118.673V102H73.5716V118.67L81.907 104.233L88.0929 107.804L79.7568 122.243L94.1953 113.907L97.7668 120.093L83.3293 128.428H100V135.571H83.3293L97.7668 143.907L94.1953 150.092L79.7557 141.756L88.0927 156.196L81.9068 159.767L73.5716 145.33V162H66.4287V145.328L58.0929 159.766L51.907 156.195L60.2422 141.758L45.8052 150.093L42.2338 143.907Z" fill="#AE8144"/>
</g>
<g style="mix-blend-mode:multiply">
<path fill-rule="evenodd" clip-rule="evenodd" d="M151.917 98.5148C162.851 109.449 180.58 109.449 191.515 98.5148L208.485 115.485C188.178 135.793 155.254 135.793 134.946 115.485C114.639 95.1781 114.639 62.2535 134.946 41.9462L151.917 58.9168C140.982 69.8515 140.982 87.5801 151.917 98.5148Z" fill="#2EAB80"/>
</g>
<g style="mix-blend-mode:multiply">
<path d="M38 338C38 341.961 44.1403 344.669 45.5687 348.119C46.9971 351.57 44.6783 357.942 47.3681 360.632C50.058 363.322 56.3096 360.957 59.8806 362.431C63.4516 363.906 66.0394 370 70 370C73.9606 370 76.669 363.86 80.1194 362.431C83.5699 361.003 89.942 363.322 92.6319 360.632C95.3217 357.942 92.9565 351.69 94.4313 348.119C95.9061 344.548 102 341.961 102 338C102 334.039 95.8597 331.331 94.4313 327.881C93.0029 324.43 95.3217 318.058 92.6319 315.368C89.942 312.678 83.6904 315.043 80.1194 313.569C76.5484 312.094 73.9606 306 70 306C66.0394 306 63.331 312.14 59.8806 313.569C56.4301 314.997 50.058 312.678 47.3681 315.368C44.6783 318.058 47.0435 324.31 45.5687 327.881C44.0939 331.452 38 334.039 38 338Z" fill="#F49972"/>
</g>
</svg>
